<svg width="19" height="17" viewBox="0 0 19 17" fill="none" xmlns="http://www.w3.org/2000/svg">
<path d="M18.8285 7.71172L10.0928 0.589186C10.0775 0.575261 10.0622 0.564818 10.0431 0.554374C9.85222 0.387277 9.54677 0.380314 9.34441 0.543931L0.608627 7.66646C0.394814 7.84052 0.379542 8.13642 0.566628 8.33137C0.669716 8.4358 0.810986 8.48802 0.952255 8.48802C1.07443 8.48802 1.19661 8.44973 1.29588 8.36966L2.86893 7.0851V7.33575V11.0537V15.3912C2.86893 16.0422 3.44928 16.5748 4.16708 16.5748C4.17854 16.5748 4.18617 16.5748 4.19763 16.5748C4.20908 16.5748 4.21672 16.5748 4.22817 16.5748H6.92374C7.59573 16.5748 8.14171 16.077 8.14171 15.4643V11.2416C8.14171 11.1477 8.22571 11.0711 8.3288 11.0711H11.1122C11.2153 11.0711 11.2993 11.1477 11.2993 11.2416V15.4643C11.2993 16.077 11.8453 16.5748 12.5172 16.5748H15.2739C15.9993 16.5748 16.5721 15.9239 16.5721 15.0919V11.2208V10.0372V7.13036L18.1451 8.41492C18.2444 8.49499 18.3666 8.53328 18.4887 8.53328C18.63 8.53328 18.7713 8.48106 18.8744 8.37662C19.0576 8.18168 19.0385 7.88578 18.8285 7.71172ZM15.5373 10.0337V11.2173V15.0849C15.5373 15.4226 15.3541 15.628 15.2701 15.628H12.5134C12.4103 15.628 12.3263 15.5514 12.3263 15.4574V11.2416C12.3263 10.629 11.7803 10.1311 11.1084 10.1311H8.32498C7.653 10.1311 7.10701 10.629 7.10701 11.2416V15.4643C7.10701 15.5583 7.02301 15.6349 6.91993 15.6349H4.22436C4.2129 15.6349 4.20527 15.6349 4.19381 15.6349C4.18236 15.6349 4.17472 15.6349 4.16327 15.6349C4.01818 15.6349 3.896 15.527 3.896 15.3912V11.0502V7.33227V6.24265L9.69186 1.52215L15.5373 6.28791V10.0337Z" fill="white"/>
</svg>
