<svg width="23" height="23" viewBox="0 0 23 23" fill="none" xmlns="http://www.w3.org/2000/svg">
<path fill-rule="evenodd" clip-rule="evenodd" d="M13.8333 2.53032C13.8333 1.68515 13.1481 1 12.303 1H10.697C9.85185 1 9.16667 1.68515 9.16667 2.53032V2.83022C9.16667 3.32934 8.83169 3.76296 8.37072 3.95434C7.90958 4.1458 7.37266 4.07284 7.0196 3.71977L6.69683 3.39701C6.01734 2.71751 4.91566 2.71751 4.23616 3.39701L3.397 4.23617C2.71751 4.91566 2.71751 6.01734 3.397 6.69683L3.71977 7.0196C4.07284 7.37267 4.1458 7.90958 3.95434 8.37072C3.76296 8.83169 3.32934 9.16667 2.83023 9.16667H2.53032C1.68515 9.16667 1 9.85185 1 10.697V12.303C1 13.1481 1.68515 13.8333 2.53032 13.8333H3.0064C3.40099 13.8333 3.74477 14.0969 3.88807 14.4646C4.02577 14.8179 3.96014 15.2224 3.69199 15.4906L3.32055 15.8621C2.68327 16.4993 2.68327 17.5325 3.32055 18.1698L4.44619 19.2954C5.00968 19.8589 5.92327 19.8589 6.48676 19.2954L6.53869 19.2435C6.97738 18.8048 7.64984 18.7308 8.21783 18.9803C8.76427 19.2204 9.16667 19.7377 9.16667 20.3346V20.4697C9.16667 21.3148 9.85185 22 10.697 22H12.303C13.1481 22 13.8333 21.3148 13.8333 20.4697V20.1697C13.8333 19.6706 14.1683 19.237 14.6292 19.0456C15.0904 18.8542 15.6273 18.9271 15.9803 19.2803L16.082 19.3819C16.5977 19.8977 17.434 19.8977 17.9498 19.3819L19.3819 17.9498C19.8977 17.434 19.8977 16.5977 19.3819 16.082L19.2803 15.9803C18.9271 15.6273 18.8542 15.0904 19.0456 14.6292C19.237 14.1683 19.6706 13.8333 20.1697 13.8333H20.4697C21.3148 13.8333 22 13.1481 22 12.303V10.697C22 9.85185 21.3148 9.16667 20.4697 9.16667H20.3346C19.7377 9.16667 19.2204 8.76427 18.9803 8.21783C18.7308 7.64984 18.8048 6.97738 19.2435 6.53869L19.2954 6.48677C19.8589 5.92329 19.8589 5.0097 19.2954 4.44623L18.1697 3.32055C17.5325 2.68328 16.4993 2.68328 15.8621 3.32055L15.4906 3.69199C15.2224 3.96014 14.8179 4.02577 14.4646 3.88807C14.0969 3.74477 13.8333 3.40099 13.8333 3.00639V2.53032ZM11.5 15C13.433 15 15 13.433 15 11.5C15 9.56695 13.433 8 11.5 8C9.56695 8 8 9.56695 8 11.5C8 13.433 9.56695 15 11.5 15Z" stroke="white" stroke-width="1.16667" stroke-linejoin="round"/>
</svg>
